<svg xmlns="http://www.w3.org/2000/svg" version="1.1" xmlns:xlink="http://www.w3.org/1999/xlink" xmlns:svgjs="http://svgjs.dev/svgjs" width="2000" height="1247" viewBox="0 0 2000 1247"><g transform="matrix(1,0,0,1,-1.2121212121212466,0.504858299595071)"><svg viewBox="0 0 396 247" data-background-color="#182524" preserveAspectRatio="xMidYMid meet" height="1247" width="2000" xmlns="http://www.w3.org/2000/svg" xmlns:xlink="http://www.w3.org/1999/xlink"><g id="tight-bounds" transform="matrix(1,0,0,1,0.2400000000000091,-0.09999999999999432)"><svg viewBox="0 0 395.52 247.2" height="247.2" width="395.52"><g><svg></svg></g><g><svg viewBox="0 0 395.52 247.2" height="247.2" width="395.52"><g transform="matrix(1,0,0,1,151.419888,47.215199999999996)"><svg viewBox="0 0 92.68022400000001 152.7696" height="152.7696" width="92.68022400000001"><g><svg viewBox="0 0 92.68022400000001 152.7696" height="152.7696" width="92.68022400000001"><g><svg viewBox="0 0 92.68022400000001 152.7696" height="152.7696" width="92.68022400000001"><g><svg viewBox="0 0 92.68022400000001 152.7696" height="152.7696" width="92.68022400000001"><g id="textblocktransform"><svg viewBox="0 0 92.68022400000001 152.7696" height="152.7696" width="92.68022400000001" id="textblock"><g><svg viewBox="0 0 92.68022400000001 152.7696" height="152.7696" width="92.68022400000001"><g transform="matrix(1,0,0,1,0,0)"><svg width="92.68022400000001" viewBox="4.38 -31.25 18.95 31.25" height="152.7696" data-palette-color="#e2f1e6"><path d="M8.33 0L4.38 0 4.38-31.25 12.12-31.25Q15.21-31.25 17.34-30.31 19.48-29.38 20.8-27.86 22.12-26.35 22.73-24.58 23.33-22.81 23.33-21.11L23.33-21.11Q23.33-19.44 22.74-17.67 22.15-15.9 20.83-14.38 19.51-12.85 17.36-11.91 15.21-10.97 12.12-10.97L12.12-10.97 8.33-10.97 8.33 0ZM8.33-27.71L8.33-14.51 11.91-14.51Q14.72-14.51 16.35-15.5 17.99-16.49 18.68-18 19.38-19.51 19.38-21.11L19.38-21.11Q19.38-22.64 18.7-24.17 18.02-25.69 16.41-26.7 14.79-27.71 11.91-27.71L11.91-27.71 8.33-27.71Z" opacity="1" transform="matrix(1,0,0,1,0,0)" fill="#e2f1e6" class="wordmark-text-0" data-fill-palette-color="primary" id="text-0"></path></svg></g></svg></g></svg></g></svg></g></svg></g></svg></g></svg></g><g><path d="M0 123.6c0-68.262 55.338-123.6 123.6-123.6 30.402 0 58.24 10.976 79.768 29.183l-11.147 0c-19.26-14.022-42.974-22.294-68.621-22.295-25.647 0-49.361 8.272-68.621 22.295h-8.639v6.937c-24.195 21.384-39.452 52.651-39.452 87.48 0 34.83 15.257 66.096 39.452 87.48v6.937l8.639 0c19.26 14.022 42.974 22.294 68.621 22.295 25.647 0 49.361-8.272 68.621-22.295l11.147 0c-21.528 18.206-49.366 29.183-79.768 29.183-68.262 0-123.6-55.338-123.6-123.6z" fill="#e2f1e6" stroke="transparent" data-fill-palette-color="tertiary"></path></g></svg></g><defs></defs></svg><rect width="395.52" height="247.2" fill="none" stroke="none" visibility="hidden"></rect></g></svg></g></svg>